<svg width="497" height="37" viewBox="0 0 497 37" fill="none" xmlns="http://www.w3.org/2000/svg">
<path d="M19.064 36.576C16.472 36.576 14.056 36.16 11.816 35.328C9.608 34.464 7.688 33.248 6.056 31.68C4.424 30.112 3.144 28.272 2.216 26.16C1.32 24.048 0.872 21.728 0.872 19.2C0.872 16.672 1.32 14.352 2.216 12.24C3.144 10.128 4.424 8.288 6.056 6.72C7.72 5.152 9.656 3.952 11.864 3.12C14.072 2.256 16.488 1.824 19.112 1.824C22.024 1.824 24.648 2.336 26.984 3.36C29.352 4.352 31.336 5.824 32.936 7.776L27.944 12.384C26.792 11.072 25.512 10.096 24.104 9.456C22.696 8.784 21.16 8.448 19.496 8.448C17.928 8.448 16.488 8.704 15.176 9.216C13.864 9.728 12.728 10.464 11.768 11.424C10.808 12.384 10.056 13.52 9.512 14.832C9 16.144 8.744 17.6 8.744 19.2C8.744 20.8 9 22.256 9.512 23.568C10.056 24.88 10.808 26.016 11.768 26.976C12.728 27.936 13.864 28.672 15.176 29.184C16.488 29.696 17.928 29.952 19.496 29.952C21.16 29.952 22.696 29.632 24.104 28.992C25.512 28.32 26.792 27.312 27.944 25.968L32.936 30.576C31.336 32.528 29.352 34.016 26.984 35.04C24.648 36.064 22.008 36.576 19.064 36.576ZM53.3585 36V30.96L52.8785 29.856V20.832C52.8785 19.232 52.3825 17.984 51.3905 17.088C50.4305 16.192 48.9425 15.744 46.9265 15.744C45.5505 15.744 44.1905 15.968 42.8465 16.416C41.5345 16.832 40.4145 17.408 39.4865 18.144L36.7985 12.912C38.2065 11.92 39.9025 11.152 41.8865 10.608C43.8705 10.064 45.8865 9.792 47.9345 9.792C51.8705 9.792 54.9265 10.72 57.1025 12.576C59.2785 14.432 60.3665 17.328 60.3665 21.264V36H53.3585ZM45.4865 36.384C43.4705 36.384 41.7425 36.048 40.3025 35.376C38.8625 34.672 37.7585 33.728 36.9905 32.544C36.2225 31.36 35.8385 30.032 35.8385 28.56C35.8385 27.024 36.2065 25.68 36.9425 24.528C37.7105 23.376 38.9105 22.48 40.5425 21.84C42.1745 21.168 44.3025 20.832 46.9265 20.832H53.7905V25.2H47.7425C45.9825 25.2 44.7665 25.488 44.0945 26.064C43.4545 26.64 43.1345 27.36 43.1345 28.224C43.1345 29.184 43.5025 29.952 44.2385 30.528C45.0065 31.072 46.0465 31.344 47.3585 31.344C48.6065 31.344 49.7265 31.056 50.7185 30.48C51.7105 29.872 52.4305 28.992 52.8785 27.84L54.0305 31.296C53.4865 32.96 52.4945 34.224 51.0545 35.088C49.6145 35.952 47.7585 36.384 45.4865 36.384ZM67.1435 36V0.383998H74.6315V36H67.1435ZM94.061 36.384C91.277 36.384 88.797 35.824 86.621 34.704C84.445 33.552 82.733 31.968 81.485 29.952C80.269 27.936 79.661 25.648 79.661 23.088C79.661 20.496 80.269 18.208 81.485 16.224C82.733 14.208 84.445 12.64 86.621 11.52C88.797 10.368 91.277 9.792 94.061 9.792C96.781 9.792 99.149 10.368 101.165 11.52C103.181 12.64 104.669 14.256 105.629 16.368L99.821 19.488C99.149 18.272 98.301 17.376 97.277 16.8C96.285 16.224 95.197 15.936 94.013 15.936C92.733 15.936 91.581 16.224 90.557 16.8C89.533 17.376 88.717 18.192 88.109 19.248C87.533 20.304 87.245 21.584 87.245 23.088C87.245 24.592 87.533 25.872 88.109 26.928C88.717 27.984 89.533 28.8 90.557 29.376C91.581 29.952 92.733 30.24 94.013 30.24C95.197 30.24 96.285 29.968 97.277 29.424C98.301 28.848 99.149 27.936 99.821 26.688L105.629 29.856C104.669 31.936 103.181 33.552 101.165 34.704C99.149 35.824 96.781 36.384 94.061 36.384ZM120.836 36.384C118.692 36.384 116.772 35.968 115.076 35.136C113.412 34.304 112.116 33.04 111.188 31.344C110.26 29.616 109.796 27.424 109.796 24.768V10.176H117.284V23.664C117.284 25.808 117.732 27.392 118.628 28.416C119.556 29.408 120.852 29.904 122.516 29.904C123.668 29.904 124.692 29.664 125.588 29.184C126.484 28.672 127.188 27.904 127.7 26.88C128.212 25.824 128.468 24.512 128.468 22.944V10.176H135.956V36H128.852V28.896L130.148 30.96C129.284 32.752 128.004 34.112 126.308 35.04C124.644 35.936 122.82 36.384 120.836 36.384ZM142.894 36V0.383998H150.382V36H142.894ZM173.171 36V30.96L172.691 29.856V20.832C172.691 19.232 172.195 17.984 171.203 17.088C170.243 16.192 168.755 15.744 166.739 15.744C165.363 15.744 164.003 15.968 162.659 16.416C161.347 16.832 160.227 17.408 159.299 18.144L156.611 12.912C158.019 11.92 159.715 11.152 161.699 10.608C163.683 10.064 165.699 9.792 167.747 9.792C171.683 9.792 174.739 10.72 176.915 12.576C179.091 14.432 180.179 17.328 180.179 21.264V36H173.171ZM165.299 36.384C163.283 36.384 161.555 36.048 160.115 35.376C158.675 34.672 157.571 33.728 156.803 32.544C156.035 31.36 155.651 30.032 155.651 28.56C155.651 27.024 156.019 25.68 156.755 24.528C157.523 23.376 158.723 22.48 160.355 21.84C161.987 21.168 164.115 20.832 166.739 20.832H173.603V25.2H167.555C165.795 25.2 164.579 25.488 163.907 26.064C163.267 26.64 162.947 27.36 162.947 28.224C162.947 29.184 163.315 29.952 164.051 30.528C164.819 31.072 165.859 31.344 167.171 31.344C168.419 31.344 169.539 31.056 170.531 30.48C171.523 29.872 172.243 28.992 172.691 27.84L173.843 31.296C173.299 32.96 172.307 34.224 170.867 35.088C169.427 35.952 167.571 36.384 165.299 36.384ZM197.516 36.384C194.476 36.384 192.108 35.616 190.412 34.08C188.716 32.512 187.868 30.192 187.868 27.12V4.464H195.356V27.024C195.356 28.112 195.644 28.96 196.22 29.568C196.796 30.144 197.58 30.432 198.572 30.432C199.756 30.432 200.764 30.112 201.596 29.472L203.612 34.752C202.844 35.296 201.916 35.712 200.828 36C199.772 36.256 198.668 36.384 197.516 36.384ZM183.884 16.512V10.752H201.788V16.512H183.884ZM219.307 36.384C216.555 36.384 214.107 35.808 211.963 34.656C209.851 33.504 208.171 31.936 206.923 29.952C205.707 27.936 205.099 25.648 205.099 23.088C205.099 20.496 205.707 18.208 206.923 16.224C208.171 14.208 209.851 12.64 211.963 11.52C214.107 10.368 216.555 9.792 219.307 9.792C222.027 9.792 224.459 10.368 226.603 11.52C228.747 12.64 230.427 14.192 231.643 16.176C232.859 18.16 233.467 20.464 233.467 23.088C233.467 25.648 232.859 27.936 231.643 29.952C230.427 31.936 228.747 33.504 226.603 34.656C224.459 35.808 222.027 36.384 219.307 36.384ZM219.307 30.24C220.555 30.24 221.675 29.952 222.667 29.376C223.659 28.8 224.443 27.984 225.019 26.928C225.595 25.84 225.883 24.56 225.883 23.088C225.883 21.584 225.595 20.304 225.019 19.248C224.443 18.192 223.659 17.376 222.667 16.8C221.675 16.224 220.555 15.936 219.307 15.936C218.059 15.936 216.939 16.224 215.947 16.8C214.955 17.376 214.155 18.192 213.547 19.248C212.971 20.304 212.683 21.584 212.683 23.088C212.683 24.56 212.971 25.84 213.547 26.928C214.155 27.984 214.955 28.8 215.947 29.376C216.939 29.952 218.059 30.24 219.307 30.24ZM238.472 36V10.176H245.624V17.472L244.616 15.36C245.384 13.536 246.616 12.16 248.312 11.232C250.008 10.272 252.072 9.792 254.504 9.792V16.704C254.184 16.672 253.896 16.656 253.64 16.656C253.384 16.624 253.112 16.608 252.824 16.608C250.776 16.608 249.112 17.2 247.832 18.384C246.584 19.536 245.96 21.344 245.96 23.808V36H238.472Z" fill="#FFD369"/>
<path d="M259.672 36V2.4H276.088C280.312 2.4 283.48 3.2 285.592 4.8C287.736 6.4 288.808 8.512 288.808 11.136C288.808 12.896 288.376 14.432 287.512 15.744C286.648 17.024 285.464 18.016 283.96 18.72C282.456 19.424 280.728 19.776 278.776 19.776L279.688 17.808C281.8 17.808 283.672 18.16 285.304 18.864C286.936 19.536 288.2 20.544 289.096 21.888C290.024 23.232 290.488 24.88 290.488 26.832C290.488 29.712 289.352 31.968 287.08 33.6C284.808 35.2 281.464 36 277.048 36H259.672ZM267.4 30.144H276.472C278.488 30.144 280.008 29.824 281.031 29.184C282.088 28.512 282.616 27.456 282.616 26.016C282.616 24.608 282.088 23.568 281.031 22.896C280.008 22.192 278.488 21.84 276.472 21.84H266.824V16.176H275.128C277.016 16.176 278.456 15.856 279.448 15.216C280.472 14.544 280.984 13.536 280.984 12.192C280.984 10.88 280.472 9.904 279.448 9.264C278.456 8.592 277.016 8.256 275.128 8.256H267.4V30.144ZM296.375 36V2.4H302.807L317.111 26.112H313.703L327.767 2.4H334.151L334.247 36H326.951L326.903 13.584H328.247L317.015 32.448H313.511L302.039 13.584H303.671V36H296.375ZM355.812 36V2.4H372.228C376.452 2.4 379.62 3.2 381.732 4.8C383.876 6.4 384.948 8.512 384.948 11.136C384.948 12.896 384.516 14.432 383.652 15.744C382.788 17.024 381.604 18.016 380.1 18.72C378.596 19.424 376.868 19.776 374.916 19.776L375.828 17.808C377.94 17.808 379.812 18.16 381.444 18.864C383.076 19.536 384.34 20.544 385.236 21.888C386.164 23.232 386.628 24.88 386.628 26.832C386.628 29.712 385.492 31.968 383.22 33.6C380.948 35.2 377.604 36 373.188 36H355.812ZM363.54 30.144H372.612C374.628 30.144 376.148 29.824 377.172 29.184C378.228 28.512 378.756 27.456 378.756 26.016C378.756 24.608 378.228 23.568 377.172 22.896C376.148 22.192 374.628 21.84 372.612 21.84H362.964V16.176H371.268C373.156 16.176 374.596 15.856 375.588 15.216C376.612 14.544 377.124 13.536 377.124 12.192C377.124 10.88 376.612 9.904 375.588 9.264C374.596 8.592 373.156 8.256 371.268 8.256H363.54V30.144ZM404.275 36.384C401.523 36.384 399.075 35.808 396.931 34.656C394.819 33.504 393.139 31.936 391.891 29.952C390.675 27.936 390.067 25.648 390.067 23.088C390.067 20.496 390.675 18.208 391.891 16.224C393.139 14.208 394.819 12.64 396.931 11.52C399.075 10.368 401.523 9.792 404.275 9.792C406.995 9.792 409.427 10.368 411.571 11.52C413.715 12.64 415.395 14.192 416.611 16.176C417.827 18.16 418.435 20.464 418.435 23.088C418.435 25.648 417.827 27.936 416.611 29.952C415.395 31.936 413.715 33.504 411.571 34.656C409.427 35.808 406.995 36.384 404.275 36.384ZM404.275 30.24C405.523 30.24 406.643 29.952 407.635 29.376C408.627 28.8 409.411 27.984 409.987 26.928C410.563 25.84 410.851 24.56 410.851 23.088C410.851 21.584 410.563 20.304 409.987 19.248C409.411 18.192 408.627 17.376 407.635 16.8C406.643 16.224 405.523 15.936 404.275 15.936C403.027 15.936 401.907 16.224 400.915 16.8C399.923 17.376 399.123 18.192 398.515 19.248C397.939 20.304 397.651 21.584 397.651 23.088C397.651 24.56 397.939 25.84 398.515 26.928C399.123 27.984 399.923 28.8 400.915 29.376C401.907 29.952 403.027 30.24 404.275 30.24ZM434 36.384C430.96 36.384 428.592 35.616 426.896 34.08C425.2 32.512 424.352 30.192 424.352 27.12V4.464H431.84V27.024C431.84 28.112 432.128 28.96 432.704 29.568C433.28 30.144 434.064 30.432 435.056 30.432C436.24 30.432 437.248 30.112 438.08 29.472L440.096 34.752C439.328 35.296 438.4 35.712 437.312 36C436.256 36.256 435.152 36.384 434 36.384ZM420.368 16.512V10.752H438.272V16.512H420.368ZM469.462 36.576C466.774 36.576 464.198 36.224 461.734 35.52C459.27 34.784 457.286 33.84 455.782 32.688L458.422 26.832C459.862 27.856 461.558 28.704 463.51 29.376C465.494 30.016 467.494 30.336 469.51 30.336C471.046 30.336 472.278 30.192 473.206 29.904C474.166 29.584 474.87 29.152 475.318 28.608C475.766 28.064 475.99 27.44 475.99 26.736C475.99 25.84 475.638 25.136 474.934 24.624C474.23 24.08 473.302 23.648 472.15 23.328C470.998 22.976 469.718 22.656 468.31 22.368C466.934 22.048 465.542 21.664 464.134 21.216C462.758 20.768 461.494 20.192 460.342 19.488C459.19 18.784 458.246 17.856 457.51 16.704C456.806 15.552 456.454 14.08 456.454 12.288C456.454 10.368 456.966 8.624 457.99 7.056C459.046 5.456 460.614 4.192 462.694 3.264C464.806 2.304 467.446 1.824 470.614 1.824C472.726 1.824 474.806 2.08 476.854 2.592C478.902 3.072 480.71 3.808 482.278 4.8L479.878 10.704C478.31 9.808 476.742 9.152 475.174 8.736C473.606 8.288 472.07 8.064 470.566 8.064C469.062 8.064 467.83 8.24 466.87 8.592C465.91 8.944 465.222 9.408 464.806 9.984C464.39 10.528 464.182 11.168 464.182 11.904C464.182 12.768 464.534 13.472 465.238 14.016C465.942 14.528 466.87 14.944 468.022 15.264C469.174 15.584 470.438 15.904 471.814 16.224C473.222 16.544 474.614 16.912 475.99 17.328C477.398 17.744 478.678 18.304 479.83 19.008C480.982 19.712 481.91 20.64 482.614 21.792C483.35 22.944 483.718 24.4 483.718 26.16C483.718 28.048 483.19 29.776 482.134 31.344C481.078 32.912 479.494 34.176 477.382 35.136C475.302 36.096 472.662 36.576 469.462 36.576ZM492.272 36.384C490.992 36.384 489.888 35.952 488.96 35.088C488.064 34.192 487.616 33.056 487.616 31.68C487.616 30.304 488.064 29.2 488.96 28.368C489.888 27.504 490.992 27.072 492.272 27.072C493.584 27.072 494.688 27.504 495.584 28.368C496.48 29.2 496.928 30.304 496.928 31.68C496.928 33.056 496.48 34.192 495.584 35.088C494.688 35.952 493.584 36.384 492.272 36.384Z" fill="#EEEEEE"/>
</svg>
